<svg width="40" height="40" viewBox="0 0 40 40" fill="none" xmlns="http://www.w3.org/2000/svg">
<path d="M10.75 28.5C10.4722 28.1944 10.4583 27.8683 10.7083 27.5217C10.9583 27.175 11.2778 27.0706 11.6667 27.2083C12.1667 27.3472 12.6739 27.4444 13.1883 27.5C13.7028 27.5556 14.2372 27.5833 14.7917 27.5833C17.0139 27.5833 19.0489 27.0972 20.8967 26.125C22.7444 25.1528 24.2789 23.8333 25.5 22.1667L23.0833 19.75C22.8056 19.4722 22.7361 19.1667 22.875 18.8333C23.0139 18.5 23.2778 18.3333 23.6667 18.3333H33.3333C33.8056 18.3333 34.2011 18.4933 34.52 18.8133C34.8389 19.1333 34.9989 19.5289 35 20V29.6667C35 30.0556 34.8333 30.3194 34.5 30.4583C34.1667 30.5972 33.8611 30.5278 33.5833 30.25L31.1667 27.8333C29.8611 29.2778 28.3056 30.4306 26.5 31.2917C24.6944 32.1528 22.7361 32.5833 20.625 32.5833C19.375 32.5833 18.1733 32.4233 17.02 32.1033C15.8667 31.7833 14.7767 31.3461 13.75 30.7917C13.2222 30.4861 12.6872 30.1461 12.145 29.7717C11.6028 29.3972 11.1378 28.9733 10.75 28.5ZM6.41667 9.75L8.83333 12.1667C10.1389 10.6944 11.6944 9.535 13.5 8.68833C15.3056 7.84166 17.2639 7.41778 19.375 7.41666C20.625 7.41666 21.8261 7.57666 22.9783 7.89666C24.1306 8.21666 25.2211 8.65389 26.25 9.20833C26.7778 9.51389 27.3122 9.86111 27.8533 10.25C28.3944 10.6389 28.86 11.0694 29.25 11.5417C29.5278 11.8472 29.5489 12.1739 29.3133 12.5217C29.0778 12.8694 28.765 12.9733 28.375 12.8333C27.875 12.6944 27.3611 12.5906 26.8333 12.5217C26.3056 12.4528 25.7639 12.4178 25.2083 12.4167C22.9861 12.4167 20.9511 12.91 19.1033 13.8967C17.2556 14.8833 15.7211 16.1956 14.5 17.8333L16.9167 20.25C17.1944 20.5278 17.2639 20.8333 17.125 21.1667C16.9861 21.5 16.7222 21.6667 16.3333 21.6667H6.66667C6.19444 21.6667 5.79833 21.5072 5.47833 21.1883C5.15833 20.8694 4.99889 20.4733 5 20V10.3333C5 9.94444 5.16666 9.68055 5.5 9.54166C5.83333 9.40278 6.13889 9.47222 6.41667 9.75Z" fill="#1A1A1A"/>
</svg>
